<svg width="288" height="67" viewBox="0 0 288 67" fill="none" xmlns="http://www.w3.org/2000/svg">
<path d="M17.5735 54H4.45274V13.4702H17.9891C21.9602 13.4702 25.3707 14.2816 28.2204 15.9044C31.0702 17.514 33.2537 19.8294 34.7709 22.8506C36.3013 25.8587 37.0666 29.4671 37.0666 33.6757C37.0666 37.8976 36.2947 41.5257 34.7511 44.5602C33.2207 47.5947 31.0042 49.9299 28.1017 51.5658C25.1992 53.1886 21.6898 54 17.5735 54ZM10.5678 48.6567H17.237C20.3243 48.6567 22.8904 48.0762 24.9353 46.9152C26.9803 45.741 28.5107 44.0457 29.5266 41.8292C30.5425 39.5995 31.0504 36.8817 31.0504 33.6757C31.0504 30.4962 30.5425 27.7981 29.5266 25.5817C28.5239 23.3652 27.0265 21.683 25.0343 20.5352C23.0421 19.3874 20.5683 18.8135 17.613 18.8135H10.5678V48.6567ZM44.6708 54V13.4702H59.1175C62.2575 13.4702 64.8632 14.0111 66.9345 15.093C69.0191 16.1748 70.5759 17.6723 71.6049 19.5853C72.634 21.4851 73.1486 23.6818 73.1486 26.1754C73.1486 28.6557 72.6274 30.8392 71.5851 32.7258C70.5561 34.5993 68.9993 36.0571 66.9147 37.0994C64.8434 38.1417 62.2377 38.6628 59.0977 38.6628H48.1539V33.3987H58.5436C60.5226 33.3987 62.1322 33.115 63.3723 32.5477C64.6257 31.9804 65.5426 31.1558 66.1231 30.074C66.7036 28.9921 66.9939 27.6926 66.9939 26.1754C66.9939 24.6449 66.697 23.319 66.1033 22.1976C65.5228 21.0761 64.6059 20.2186 63.3525 19.6249C62.1124 19.018 60.483 18.7145 58.4644 18.7145H50.7859V54H44.6708ZM64.6785 35.7141L74.6922 54H67.7261L57.9103 35.7141H64.6785ZM106.653 13.4702H112.788V40.1273C112.788 42.9638 112.122 45.4771 110.789 47.6672C109.456 49.8441 107.583 51.5592 105.169 52.8126C102.754 54.0528 99.9243 54.6729 96.6788 54.6729C93.4464 54.6729 90.6231 54.0528 88.2087 52.8126C85.7943 51.5592 83.9209 49.8441 82.5883 47.6672C81.2558 45.4771 80.5896 42.9638 80.5896 40.1273V13.4702H86.7047V39.6325C86.7047 41.4664 87.107 43.0957 87.9118 44.5206C88.7298 45.9455 89.8842 47.0669 91.3751 47.8849C92.8659 48.6897 94.6338 49.0921 96.6788 49.0921C98.7369 49.0921 100.511 48.6897 102.002 47.8849C103.506 47.0669 104.654 45.9455 105.446 44.5206C106.251 43.0957 106.653 41.4664 106.653 39.6325V13.4702ZM121.678 13.4702H129.1L142.003 44.9758H142.478L155.381 13.4702H162.802V54H156.984V24.6713H156.608L144.655 53.9406H139.826L127.873 24.6515H127.497V54H121.678V13.4702ZM171.693 54V13.4702H186.139C189.292 13.4702 191.905 14.0441 193.976 15.1919C196.047 16.3398 197.598 17.9098 198.627 19.9019C199.656 21.8809 200.17 24.1106 200.17 26.5909C200.17 29.0845 199.649 31.3273 198.607 33.3195C197.578 35.2985 196.021 36.8685 193.936 38.0295C191.865 39.1773 189.259 39.7512 186.119 39.7512H176.185V34.5663H185.565C187.557 34.5663 189.174 34.2233 190.414 33.5372C191.654 32.838 192.564 31.888 193.145 30.6875C193.725 29.4869 194.016 28.1214 194.016 26.5909C194.016 25.0605 193.725 23.7016 193.145 22.5142C192.564 21.3268 191.647 20.3967 190.394 19.7238C189.154 19.051 187.518 18.7145 185.486 18.7145H177.808V54H171.693Z" fill="white"/>
<rect x="227" y="3" width="61" height="61" rx="16.6364" fill="white"/>
<path d="M260.943 19.9606H263.369V37.556C263.369 39.3639 262.946 40.9816 262.098 42.4089C261.25 43.8276 260.069 44.9479 258.555 45.7697C257.05 46.5829 255.298 46.9894 253.3 46.9894C251.311 46.9894 249.559 46.5785 248.045 45.7567C246.531 44.9349 245.35 43.8147 244.502 42.396C243.655 40.9773 243.231 39.3639 243.231 37.556V19.9606H245.657V37.3873C245.657 38.7973 245.973 40.056 246.605 41.1633C247.236 42.2619 248.123 43.1269 249.265 43.7584C250.415 44.3899 251.76 44.7057 253.3 44.7057C254.84 44.7057 256.185 44.3899 257.336 43.7584C258.486 43.1269 259.373 42.2619 259.996 41.1633C260.627 40.056 260.943 38.7973 260.943 37.3873V19.9606ZM272.848 19.9606V46.5353H270.422V19.9606H272.848Z" fill="#EC4899"/>
</svg>
